<?xml version="1.0" encoding="utf-8"?>
<!-- Generator: Adobe Illustrator 22.0.0, SVG Export Plug-In . SVG Version: 6.00 Build 0)  -->
<svg version="1.1" id="Layer_1" xmlns="http://www.w3.org/2000/svg" xmlns:xlink="http://www.w3.org/1999/xlink" x="0px" y="0px"
	 viewBox="0 0 59.5 18" style="enable-background:new 0 0 59.5 18;" xml:space="preserve">
<style type="text/css">
	.st0{fill:#F3F3F4;}
</style>
<g>
	<path class="st0" d="M19.6,10.1c0.1,0.1,0.1,0.3,0,0.4l-1.2,1.2c-0.2,0.2-0.2,0.6,0,0.8c0.1,0.1,0.2,0.1,0.4,0.1
		c0.1,0,0.3,0,0.4-0.2l1.8-1.8c0.1-0.1,0.2-0.2,0.2-0.4c0-0.1,0-0.2-0.1-0.3c0,0,0-0.1-0.1-0.1l-1.8-1.8c-0.2-0.2-0.5-0.2-0.7,0
		c-0.2,0.2-0.2,0.6,0,0.8L19.6,10.1z"/>
	<path class="st0" d="M38.6,10.6l1.8,1.8c0.1,0.1,0.2,0.2,0.4,0.2s0.3,0,0.4-0.1c0.2-0.2,0.2-0.6,0-0.8l-1.2-1.2
		c-0.1-0.1-0.1-0.3,0-0.4l1.2-1.2c0.2-0.2,0.2-0.5,0-0.7c-0.2-0.2-0.6-0.2-0.8,0l-1.8,1.8c-0.1,0.1-0.2,0.2-0.2,0.4
		C38.4,10.4,38.5,10.5,38.6,10.6C38.6,10.6,38.6,10.6,38.6,10.6z"/>
	<path class="st0" d="M14.1,11.3c0.1,0.1,0.4,0.1,0.5,0l0.8-0.8c0.1-0.1,0.1-0.4,0-0.5l-0.8-0.8c-0.1-0.1-0.4-0.1-0.5,0L13.3,10
		c-0.1,0.1-0.1,0.4,0,0.5L14.1,11.3z"/>
	<path class="st0" d="M44.9,11.3c0.1,0.1,0.4,0.1,0.5,0l0.8-0.8c0.1-0.1,0.1-0.4,0-0.5l-0.8-0.8c-0.1-0.1-0.4-0.1-0.5,0L44.2,10
		c-0.1,0.1-0.1,0.4,0,0.5L44.9,11.3z"/>
	<path class="st0" d="M24.2,8.9c0.1,0.1,0.1,0.2,0.1,0.3c-0.1,0.3-0.1,0.7-0.1,1c0,1.9,1.2,3.8,3.6,3.8h3.9c1.1,0,2-0.4,2.7-1.2
		c0.6-0.7,0.9-1.6,0.9-2.6c0-0.3,0-0.7-0.1-1c0-0.1,0-0.2,0.1-0.3l1.2-1.2c0.2-0.2,0.2-0.6,0-0.8s-0.6-0.2-0.8,0l-0.9,0.9
		c-0.1,0.1-0.2,0.1-0.3,0C34,7,33,6.5,31.7,6.5h-1.2c-0.1,0-0.2-0.1-0.2-0.2V5.3c0-0.1,0.1-0.2,0.2-0.2h2.2c0.3,0,0.4,0,0.5-0.1
		c0.1-0.1,0.2-0.2,0.2-0.4c0-0.2-0.1-0.3-0.2-0.4C33.2,4,33.1,4,32.8,4h-6.1c-0.3,0-0.4,0-0.5,0.1C26.1,4.2,26,4.3,26,4.5
		c0,0.2,0.1,0.3,0.2,0.4c0.1,0.1,0.2,0.1,0.5,0.1H29c0.1,0,0.2,0.1,0.2,0.2v0.9c0,0.1-0.1,0.2-0.2,0.2h-1.2c-1.1,0-2,0.4-2.7,1.2
		c0,0.1-0.1,0.1-0.1,0.2c-0.1,0.1-0.2,0.1-0.3,0l-0.9-0.9c-0.2-0.2-0.6-0.2-0.8,0c-0.2,0.2-0.2,0.6,0,0.8L24.2,8.9z M34.3,10.1
		c0,0,0,0.1,0,0.1c0,0.7-0.2,1.4-0.6,1.9c-0.5,0.6-1.1,0.8-1.9,0.8h-0.3c-0.1,0-0.1-0.1-0.1-0.1l2.8-2.8
		C34.2,10,34.3,10.1,34.3,10.1z M30.4,7.7c0-0.1,0.1-0.2,0.2-0.2h1.2c1,0,1.7,0.4,2.1,1c0.1,0.1,0.1,0.3,0,0.4l-3.3,3.3
		c-0.1,0.1-0.2,0-0.2-0.1L30.4,7.7L30.4,7.7z M25.7,8.6c0-0.1,0.1-0.1,0.2-0.2c0.5-0.6,1.1-0.8,1.9-0.8H29c0.1,0,0.2,0.1,0.2,0.2
		v4.4c0,0.1-0.1,0.1-0.2,0.1l-3.3-3.3C25.7,8.8,25.6,8.7,25.7,8.6z M25.2,10.1c0-0.1,0.1-0.1,0.2-0.1l2.8,2.8c0,0,0,0.1-0.1,0.1
		h-0.3c-1.8,0-2.6-1.4-2.6-2.8C25.2,10.2,25.2,10.2,25.2,10.1z"/>
</g>
</svg>
