<?xml version="1.0" encoding="utf-8"?>
<!-- Generator: Adobe Illustrator 21.1.0, SVG Export Plug-In . SVG Version: 6.00 Build 0)  -->
<svg version="1.1" id="Layer_1" xmlns="http://www.w3.org/2000/svg" xmlns:xlink="http://www.w3.org/1999/xlink" x="0px" y="0px"
	 viewBox="0 0 209.1 63.2" style="enable-background:new 0 0 209.1 63.2;" xml:space="preserve">
<style type="text/css">
	.st0{fill:#282828;}
</style>
<g>
	<path class="st0" d="M40.4,38.3c0.8,0.8,0.8,2,0,2.7l-7.5,7.5c-1.3,1.3-1.4,3.6-0.1,4.9c0.7,0.6,1.5,0.9,2.3,0.9
		c0.9,0,1.7-0.3,2.3-1L48.7,42c0.7-0.7,1-1.5,1-2.3c0-0.7-0.2-1.3-0.6-1.8c-0.1-0.2-0.3-0.4-0.4-0.5L37.5,26.1
		c-1.3-1.3-3.4-1.4-4.7-0.2c-1.4,1.3-1.4,3.5-0.1,4.8L40.4,38.3z"/>
	<path class="st0" d="M160.4,41.8l11.3,11.3c0.7,0.7,1.5,1,2.3,1s1.6-0.3,2.3-0.9c1.4-1.3,1.3-3.5-0.1-4.9l-7.5-7.5
		c-0.8-0.8-0.8-2,0-2.7l7.5-7.5c1.3-1.3,1.4-3.4,0.2-4.7c-1.3-1.4-3.5-1.4-4.8-0.1l-11.3,11.3c-0.7,0.7-1,1.5-1,2.3
		c0,0.7,0.2,1.3,0.6,1.8C160.1,41.5,160.2,41.7,160.4,41.8z"/>
	<path class="st0" d="M5.6,46.2c0.9,0.9,2.3,0.9,3.2,0l4.9-4.9c0.9-0.9,0.9-2.3,0-3.2l-4.9-4.9c-0.9-0.9-2.3-0.9-3.2,0l-4.9,4.9
		c-0.9,0.9-0.9,2.3,0,3.2L5.6,46.2z"/>
	<path class="st0" d="M200.4,45.9c0.9,0.9,2.3,0.9,3.2,0l4.9-4.9c0.9-0.9,0.9-2.3,0-3.2l-4.9-4.9c-0.9-0.9-2.3-0.9-3.2,0l-4.9,4.9
		c-0.9,0.9-0.9,2.3,0,3.2L200.4,45.9z"/>
	<path class="st0" d="M69.5,31c0.6,0.6,0.8,1.3,0.6,2.1c-0.5,2-0.7,4.2-0.7,6.3c0,11.8,7.8,23.8,22.7,23.8H117
		c7,0,12.9-2.6,17.1-7.6c3.6-4.3,5.6-10.1,5.6-16.3c0-2.1-0.3-4.2-0.8-6.3c-0.2-0.8,0.1-1.5,0.6-2.1l7.9-7.9
		c1.4-1.4,1.3-3.6-0.1-4.9c-1.4-1.3-3.6-1.2-4.9,0.2l-5.9,5.9c-0.5,0.5-1.3,0.4-1.7-0.1c-3.8-5.1-9.8-8.6-17.9-8.6h-7.3
		c-0.8,0-1.5-0.7-1.5-1.5V8.1c0-0.8,0.7-1.5,1.5-1.5h14.1c1.8,0,2.4-0.2,3.2-0.6c0.9-0.6,1.4-1.5,1.4-2.7s-0.5-2.1-1.4-2.7
		c-0.7-0.5-1.4-0.6-3.2-0.6H85.3c-1.8,0-2.4,0.2-3.2,0.6c-0.9,0.6-1.4,1.5-1.4,2.7s0.5,2.1,1.4,2.7c0.7,0.5,1.4,0.6,3.2,0.6h14.1
		c0.8,0,1.5,0.7,1.5,1.5v6c0,0.8-0.7,1.5-1.5,1.5h-7.3c-7,0-12.9,2.6-17.1,7.6c-0.3,0.4-0.6,0.7-0.8,1c-0.4,0.6-1.2,0.6-1.7,0.2
		l-5.9-5.9c-1.3-1.3-3.5-1.5-4.9-0.2s-1.4,3.6-0.1,4.9L69.5,31z M133.4,38.7c0,0.3,0,0.5,0,0.8c0,4.6-1.5,9-4.1,12.1
		c-2.9,3.5-7.1,5.3-12.2,5.3h-2c-0.4,0-0.7-0.5-0.4-0.8l17.7-17.7C132.7,37.9,133.3,38.2,133.4,38.7z M108.3,23.5
		c0-0.8,0.7-1.5,1.5-1.5h7.3c6.2,0,10.5,2.7,13.2,6.6c0.5,0.7,0.4,1.7-0.2,2.3l-20.6,20.6c-0.4,0.4-1.1,0.1-1.1-0.5L108.3,23.5
		L108.3,23.5z M78.9,28.7c0.3-0.5,0.6-0.9,1-1.3c2.9-3.5,7.1-5.3,12.2-5.3h7.3c0.8,0,1.5,0.7,1.5,1.5v27.7c0,0.6-0.7,0.8-1.1,0.5
		L79.1,31C78.5,30.4,78.4,29.4,78.9,28.7z M75.8,38.7c0-0.5,0.6-0.7,1-0.4L94.5,56c0.3,0.3,0.1,0.8-0.4,0.8h-2
		c-11.2,0-16.3-9-16.3-17.4C75.8,39.2,75.8,38.9,75.8,38.7z"/>
</g>
</svg>
